<svg width="75" height="75" viewBox="0 0 75 75" fill="none" xmlns="http://www.w3.org/2000/svg">
<path d="M37.5144 27.2887C34.8682 27.2887 32.3902 28.2611 30.514 30.0381C28.6467 31.8152 27.6112 34.1623 27.6112 36.6686C27.6112 39.1749 28.6467 41.522 30.514 43.299C32.3902 45.0677 34.8682 46.0484 37.5144 46.0484C40.1605 46.0484 42.6385 45.0677 44.5147 43.299C46.3821 41.522 47.4176 39.1749 47.4176 36.6686C47.4176 34.1623 46.3821 31.8152 44.5147 30.0381C43.5984 29.1635 42.5076 28.47 41.3059 27.9981C40.1041 27.5261 38.8154 27.285 37.5144 27.2887ZM74.003 47.0292L68.2151 42.3434C68.4894 40.7508 68.631 39.1246 68.631 37.5068C68.631 35.889 68.4894 34.2545 68.2151 32.6702L74.003 27.9845C74.4402 27.6299 74.7531 27.1578 74.9002 26.6307C75.0472 26.1036 75.0213 25.5467 74.826 25.0339L74.7464 24.8159C73.1535 20.597 70.7667 16.6864 67.7018 13.2734L67.5425 13.0974C67.1703 12.6829 66.6742 12.385 66.1197 12.2428C65.5652 12.1007 64.9782 12.121 64.4361 12.3011L57.2499 14.7236C54.5949 12.6615 51.639 11.0354 48.4353 9.90374L47.0459 2.78713C46.941 2.25101 46.6664 1.7578 46.2586 1.37301C45.8508 0.988221 45.329 0.730075 44.7626 0.632867L44.5236 0.590955C39.9216 -0.196985 35.0718 -0.196985 30.4698 0.590955L30.2308 0.632867C29.6644 0.730075 29.1426 0.988221 28.7348 1.37301C28.3269 1.7578 28.0524 2.25101 27.9475 2.78713L26.5492 9.93727C23.3758 11.0779 20.4196 12.7001 17.7966 14.7404L10.5573 12.3011C10.0153 12.1196 9.42793 12.0985 8.87307 12.2407C8.31821 12.383 7.82219 12.6818 7.45092 13.0974L7.29162 13.2734C4.23206 16.69 1.8459 20.5997 0.247013 24.8159L0.167363 25.0339C-0.230887 26.0817 0.0965634 27.2552 0.990414 27.9845L6.84912 32.7205C6.57477 34.2964 6.44202 35.9058 6.44202 37.4984C6.44202 39.1078 6.57477 40.7173 6.84912 42.2764L1.00811 47.0124C0.570886 47.3669 0.257956 47.8391 0.110935 48.3662C-0.0360852 48.8932 -0.0102303 49.4502 0.185063 49.963L0.264713 50.1809C1.86656 54.3972 4.22952 58.295 7.30932 61.7234L7.46862 61.8994C7.8408 62.3139 8.33684 62.6119 8.89137 62.754C9.44589 62.8962 10.0329 62.8759 10.575 62.6958L17.8143 60.2565C20.4516 62.3102 23.3898 63.9364 26.5669 65.0596L27.9652 72.2097C28.0701 72.7458 28.3446 73.2391 28.7525 73.6239C29.1603 74.0086 29.6821 74.2668 30.2485 74.364L30.4875 74.4059C35.1348 75.198 39.894 75.198 44.5413 74.4059L44.7802 74.364C45.3467 74.2668 45.8685 74.0086 46.2763 73.6239C46.6842 73.2391 46.9587 72.7458 47.0636 72.2097L48.453 65.0931C51.6567 63.9531 54.6126 62.3353 57.2676 60.2733L64.4538 62.6958C64.9957 62.8773 65.5832 62.8984 66.138 62.7561C66.6929 62.6139 67.1889 62.3151 67.5602 61.8994L67.7195 61.7234C70.7993 58.2783 73.1622 54.3972 74.7641 50.1809L74.8437 49.963C75.2243 48.9236 74.8968 47.7584 74.003 47.0292ZM37.5144 51.4047C28.921 51.4047 21.9561 44.8078 21.9561 36.6686C21.9561 28.5293 28.921 21.9324 37.5144 21.9324C46.1078 21.9324 53.0727 28.5293 53.0727 36.6686C53.0727 44.8078 46.1078 51.4047 37.5144 51.4047Z" fill="#FAFAFA"/>
</svg>
