<svg width="75" height="85" viewBox="0 0 75 85" fill="none" xmlns="http://www.w3.org/2000/svg">
<path d="M18.75 42.5H56.25V48.5714H18.75V42.5ZM18.75 24.2857H56.25V30.3571H18.75V24.2857Z" fill="white"/>
<path d="M37.5 85L18.2 75.0034C12.6975 72.1604 8.09597 67.9152 4.8895 62.7236C1.68304 57.532 -0.00728205 51.5901 2.35813e-05 45.5357V6.07143C2.35813e-05 4.46119 0.658503 2.91689 1.8306 1.77828C3.00271 0.639666 4.59242 0 6.25002 0H68.75C70.4076 0 71.9973 0.639666 73.1694 1.77828C74.3415 2.91689 75 4.46119 75 6.07143V45.5357C75.0073 51.5901 73.317 57.532 70.1105 62.7236C66.904 67.9152 62.3025 72.1604 56.8 75.0034L37.5 85ZM6.25002 6.07143V45.5357C6.24654 50.4891 7.63088 55.3499 10.2546 59.5972C12.8784 63.8445 16.6426 67.318 21.1438 69.6454L37.5 78.118L53.8562 69.6484C58.3578 67.3208 62.1224 63.8468 64.7462 59.599C67.37 55.3511 68.754 50.4896 68.75 45.5357V6.07143H6.25002Z" fill="white"/>
</svg>
