<svg width="25" height="25" viewBox="0 0 75 59" fill="none" xmlns="http://www.w3.org/2000/svg">
<path d="M26.25 11.9845V24.6286L21.4805 27.4773C19.7813 28.493 18.75 30.3143 18.75 32.2874V59H30V47.7919C30 43.6706 33.3633 40.3199 37.5 40.3199C41.6367 40.3199 45 43.6706 45 47.7919V59H56.25V32.2874C56.25 30.3143 55.2188 28.493 53.5195 27.4773L48.75 24.6286V11.9845C48.75 10.9921 48.3516 10.0464 47.6484 9.3459L38.8242 0.542891C38.0977 -0.180964 36.9023 -0.180964 36.1758 0.542891L27.3516 9.33422C26.6484 10.0347 26.25 10.9804 26.25 11.9728V11.9845ZM2.91797 37.7864C1.11328 38.7788 0 40.6585 0 42.7016V53.396C0 56.4899 2.51953 59 5.625 59H15V31.1666L2.91797 37.7864ZM69.375 59C72.4805 59 75 56.4899 75 53.396V42.7016C75 40.6585 73.8867 38.7788 72.082 37.7864L60 31.1666V59H69.375Z" fill="#ffffff33"/>
</svg>
