<svg width="25" height="25" viewBox="0 0 75 75" fill="none" xmlns="http://www.w3.org/2000/svg">
<path d="M37.5 0C16.8219 0 0 16.8219 0 37.5C0 58.1781 16.8219 75 37.5 75C58.1781 75 75 58.1781 75 37.5C75 16.8219 58.1781 0 37.5 0ZM37.5 6.25C54.7969 6.25 68.75 20.2031 68.75 37.5C68.75 54.7969 54.7969 68.75 37.5 68.75C20.2031 68.75 6.25 54.7969 6.25 37.5C6.25 20.2031 20.2031 6.25 37.5 6.25ZM37.5 12.5C35.8424 12.5 34.2527 13.1585 33.0806 14.3306C31.9085 15.5027 31.25 17.0924 31.25 18.75C31.25 20.4076 31.9085 21.9973 33.0806 23.1694C34.2527 24.3415 35.8424 25 37.5 25C39.1576 25 40.7473 24.3415 41.9194 23.1694C43.0915 21.9973 43.75 20.4076 43.75 18.75C43.75 17.0924 43.0915 15.5027 41.9194 14.3306C40.7473 13.1585 39.1576 12.5 37.5 12.5ZM19.4344 25.0969L18.0625 31.1562L31.2469 34.0844V46.875L28.2188 61.9156L34.275 63.0875L37.4 47.4625L37.4969 47.1688L37.5938 47.4594L40.7188 63.0844L46.775 61.9125L43.75 46.875V34.0812L56.9344 31.1531L55.5656 25.0969L42.1875 28.125H32.8125L19.4344 25.0969Z" fill="#ffffff33"/>
</svg>
