<svg width="87" height="87" viewBox="0 0 87 87" fill="none" xmlns="http://www.w3.org/2000/svg">
<path d="M42.3965 49.1016V36.9434C42.3965 36.6764 42.4876 36.4518 42.6699 36.2695C42.8522 36.0872 43.0703 35.9961 43.3242 35.9961H45.1602C45.4141 35.9961 45.6289 36.0872 45.8047 36.2695C45.987 36.4518 46.0781 36.6764 46.0781 36.9434V47.2363H54.584C54.8379 47.2363 55.0527 47.3275 55.2285 47.5098C55.4108 47.6921 55.502 47.9102 55.502 48.1641V49.082C55.502 49.3359 55.4108 49.554 55.2285 49.7363C55.0527 49.9121 54.8379 50 54.584 50H43.3242C43.0703 50 42.8522 49.9154 42.6699 49.7461C42.4876 49.5703 42.3965 49.3555 42.3965 49.1016Z" fill="#7954FF"/>
<path d="M46.6035 36.9238C46.6035 36.6699 46.5124 36.4518 46.3301 36.2695C46.1478 36.0872 45.9297 35.9961 45.6758 35.9961H37.7363C35.7897 35.9961 34.3542 36.556 33.4297 37.6758C32.9154 38.2943 32.6582 39.0853 32.6582 40.0488C32.6582 41.0059 33.0977 41.8424 33.9766 42.5586C32.7266 43.2292 32.1016 44.2708 32.1016 45.6836C32.1016 47.0964 32.6029 48.1706 33.6055 48.9062C34.6016 49.6354 35.8255 50 37.2773 50H45.6758C45.9297 50 46.1478 49.9121 46.3301 49.7363C46.5124 49.554 46.6035 49.3359 46.6035 49.082V36.9238ZM42.9219 47.3633H37.3359C36.8346 47.3633 36.4505 47.2135 36.1836 46.9141C35.9167 46.6146 35.7832 46.2044 35.7832 45.6836C35.7832 45.1628 35.9167 44.7526 36.1836 44.4531C36.4505 44.1536 36.8346 44.0039 37.3359 44.0039H42.9219V47.3633ZM42.9219 41.4355H37.6973C37.2871 41.4355 36.9583 41.3151 36.7109 41.0742C36.4635 40.8268 36.3398 40.485 36.3398 40.0488C36.3398 39.6061 36.4635 39.2611 36.7109 39.0137C36.9583 38.7663 37.2871 38.6426 37.6973 38.6426H42.9219V41.4355Z" fill="#7954FF"/>
<path d="M3.35582 83.6441C-5.8755 74.4031 4.60277 48.9421 26.7724 26.7725C48.9421 4.60284 74.4031 -5.88026 83.6441 3.35589C92.8754 12.5969 82.3972 38.0579 60.2275 60.2275C38.0578 82.3972 12.5968 92.8803 3.35582 83.6441ZM10.0546 76.9454C13.9936 80.8892 34.7133 72.3539 53.5384 53.5288C72.3635 34.7037 80.894 13.984 76.955 10.045C73.016 6.10111 52.2963 14.6365 33.4712 33.4616C14.6461 52.2867 6.11554 73.0064 10.0546 76.9454ZM26.7773 60.2227C4.60277 38.0579 -5.88033 12.5969 3.35582 3.35589C12.5968 -5.87542 38.0578 4.60284 60.2275 26.7725C82.3972 48.9421 92.8803 74.4031 83.6441 83.6441C74.4031 92.8754 48.9421 82.3972 26.7724 60.2275L26.7773 60.2227ZM33.4712 53.5288C52.2963 72.3539 73.016 80.8844 76.955 76.9454C80.8989 73.0064 72.3635 52.2867 53.5384 33.4616C34.7133 14.6365 13.9936 6.10595 10.0546 10.045C6.11071 13.984 14.6461 34.7037 33.4712 53.5288Z" fill="white"/>
</svg>
