<svg width="40" height="40" viewBox="0 0 87 87" fill="none" xmlns="http://www.w3.org/2000/svg">
<path d="M44.6035 49.1016V36.9434C44.6035 36.6764 44.5124 36.4518 44.3301 36.2695C44.1478 36.0872 43.9297 35.9961 43.6758 35.9961H41.8398C41.5859 35.9961 41.3711 36.0872 41.1953 36.2695C41.013 36.4518 40.9219 36.6764 40.9219 36.9434V47.2363H32.416C32.1621 47.2363 31.9473 47.3275 31.7715 47.5098C31.5892 47.6921 31.498 47.9102 31.498 48.1641V49.082C31.498 49.3359 31.5892 49.554 31.7715 49.7363C31.9473 49.9121 32.1621 50 32.416 50H43.6758C43.9297 50 44.1478 49.9154 44.3301 49.7461C44.5124 49.5703 44.6035 49.3555 44.6035 49.1016Z" fill="white"/>
<path d="M41.3965 36.9238C41.3965 36.6699 41.4876 36.4518 41.6699 36.2695C41.8522 36.0872 42.0703 35.9961 42.3242 35.9961H50.2637C52.2103 35.9961 53.6458 36.556 54.5703 37.6758C55.0846 38.2943 55.3418 39.0853 55.3418 40.0488C55.3418 41.0059 54.9023 41.8424 54.0234 42.5586C55.2734 43.2292 55.8984 44.2708 55.8984 45.6836C55.8984 47.0964 55.3971 48.1706 54.3945 48.9062C53.3984 49.6354 52.1745 50 50.7227 50H42.3242C42.0703 50 41.8522 49.9121 41.6699 49.7363C41.4876 49.554 41.3965 49.3359 41.3965 49.082V36.9238ZM45.0781 47.3633H50.6641C51.1654 47.3633 51.5495 47.2135 51.8164 46.9141C52.0833 46.6146 52.2168 46.2044 52.2168 45.6836C52.2168 45.1628 52.0833 44.7526 51.8164 44.4531C51.5495 44.1536 51.1654 44.0039 50.6641 44.0039H45.0781V47.3633ZM45.0781 41.4355H50.3027C50.7129 41.4355 51.0417 41.3151 51.2891 41.0742C51.5365 40.8268 51.6602 40.485 51.6602 40.0488C51.6602 39.6061 51.5365 39.2611 51.2891 39.0137C51.0417 38.7663 50.7129 38.6426 50.3027 38.6426H45.0781V41.4355Z" fill="white"/>
<path d="M3.35582 83.6441C-5.8755 74.4031 4.60277 48.9421 26.7724 26.7725C48.9421 4.60284 74.4031 -5.88026 83.6441 3.35589C92.8754 12.5969 82.3972 38.0579 60.2275 60.2275C38.0578 82.3972 12.5968 92.8803 3.35582 83.6441ZM10.0546 76.9454C13.9936 80.8892 34.7133 72.3539 53.5384 53.5288C72.3635 34.7037 80.894 13.984 76.955 10.045C73.016 6.10111 52.2963 14.6365 33.4712 33.4616C14.6461 52.2867 6.11554 73.0064 10.0546 76.9454ZM26.7773 60.2227C4.60277 38.0579 -5.88033 12.5969 3.35582 3.35589C12.5968 -5.87542 38.0578 4.60284 60.2275 26.7725C82.3972 48.9421 92.8803 74.4031 83.6441 83.6441C74.4031 92.8754 48.9421 82.3972 26.7724 60.2275L26.7773 60.2227ZM33.4712 53.5288C52.2963 72.3539 73.016 80.8844 76.955 76.9454C80.8989 73.0064 72.3635 52.2867 53.5384 33.4616C34.7133 14.6365 13.9936 6.10595 10.0546 10.045C6.11071 13.984 14.6461 34.7037 33.4712 53.5288Z" fill="white"/>
</svg>
