<svg width="75" height="75" viewBox="0 0 75 75" fill="none" xmlns="http://www.w3.org/2000/svg">
<mask id="mask0_143_301" style="mask-type:luminance" maskUnits="userSpaceOnUse" x="0" y="0" width="75" height="75">
<path d="M37.4999 61.3636C50.6794 61.3636 61.3635 50.6795 61.3635 37.5C61.3635 24.3204 50.6794 13.6364 37.4999 13.6364C24.3203 13.6364 13.6362 24.3204 13.6362 37.5C13.6362 50.6795 24.3203 61.3636 37.4999 61.3636Z" fill="white" stroke="white" stroke-width="2"/>
<path d="M15.3408 46.0227C17.913 47.0863 22.159 47.7272 24.305 45.225C26.4493 42.721 24.5368 38.7818 26.913 37.4454C29.5175 35.9795 31.3976 40.9636 36.2914 40.0841C41.1851 39.2045 44.3181 32.3863 44.3181 28.9772C44.3181 25.5682 41.3948 25.5682 41.1851 22.2511C40.909 17.8977 44.3181 15.3409 44.3181 15.3409M44.3181 59.6591C42.467 58.1096 40.909 57.1022 40.909 54.5454C40.909 51.9886 42.6135 52.8409 44.3181 51.1363C46.0226 49.4318 45.1704 46.0227 46.8749 45.1704C48.5795 44.3182 53.8772 46.1182 57.9545 49.4318" stroke="black" stroke-width="2" stroke-linecap="round"/>
<path d="M37.4999 6.81818C39.3827 6.81818 40.909 5.29188 40.909 3.40909C40.909 1.5263 39.3827 0 37.4999 0C35.6171 0 34.0908 1.5263 34.0908 3.40909C34.0908 5.29188 35.6171 6.81818 37.4999 6.81818Z" fill="white"/>
<path d="M37.4999 75C39.3827 75 40.909 73.4737 40.909 71.5909C40.909 69.7081 39.3827 68.1818 37.4999 68.1818C35.6171 68.1818 34.0908 69.7081 34.0908 71.5909C34.0908 73.4737 35.6171 75 37.4999 75Z" fill="white"/>
<path d="M71.5907 40.9091C73.4735 40.9091 74.9998 39.3828 74.9998 37.5C74.9998 35.6172 73.4735 34.0909 71.5907 34.0909C69.7079 34.0909 68.1816 35.6172 68.1816 37.5C68.1816 39.3828 69.7079 40.9091 71.5907 40.9091Z" fill="white"/>
<path d="M61.3637 17.0455C63.2465 17.0455 64.7728 15.5192 64.7728 13.6364C64.7728 11.7536 63.2465 10.2273 61.3637 10.2273C59.4809 10.2273 57.9546 11.7536 57.9546 13.6364C57.9546 15.5192 59.4809 17.0455 61.3637 17.0455Z" fill="white"/>
<path d="M13.6361 64.7727C15.5189 64.7727 17.0452 63.2464 17.0452 61.3636C17.0452 59.4808 15.5189 57.9545 13.6361 57.9545C11.7534 57.9545 10.2271 59.4808 10.2271 61.3636C10.2271 63.2464 11.7534 64.7727 13.6361 64.7727Z" fill="white"/>
<path d="M3.40909 40.9091C5.29188 40.9091 6.81818 39.3828 6.81818 37.5C6.81818 35.6172 5.29188 34.0909 3.40909 34.0909C1.5263 34.0909 0 35.6172 0 37.5C0 39.3828 1.5263 40.9091 3.40909 40.9091Z" fill="white"/>
<path d="M13.6361 17.0455C15.5189 17.0455 17.0452 15.5192 17.0452 13.6364C17.0452 11.7536 15.5189 10.2273 13.6361 10.2273C11.7534 10.2273 10.2271 11.7536 10.2271 13.6364C10.2271 15.5192 11.7534 17.0455 13.6361 17.0455Z" fill="white"/>
<path d="M61.3637 64.7727C63.2465 64.7727 64.7728 63.2464 64.7728 61.3636C64.7728 59.4808 63.2465 57.9545 61.3637 57.9545C59.4809 57.9545 57.9546 59.4808 57.9546 61.3636C57.9546 63.2464 59.4809 64.7727 61.3637 64.7727Z" fill="white"/>
<path d="M13.6362 37.5C13.6362 44.0028 16.2374 49.8971 20.4544 54.2011M37.4999 61.3636C50.6794 61.3636 61.3635 50.6795 61.3635 37.5M37.4999 13.6364C44.0027 13.6364 49.897 16.2375 54.201 20.4545" stroke="white" stroke-width="2" stroke-linecap="round" stroke-linejoin="round"/>
</mask>
<g mask="url(#mask0_143_301)">
<path d="M-3.40918 -3.40912H78.409V78.4091H-3.40918V-3.40912Z" fill="#FAFAFA"/>
</g>
</svg>
